<svg enable-background="new 0 0 128 128" height="128" viewBox="0 0 128 128" width="128" xmlns="http://www.w3.org/2000/svg"><g fill="#282d33"><path d="m75.794 27.351h4v27.301h-4z"/><path d="m48.016 27.351h4v27.301h-4z"/><path d="m92.504 124.254h-57.199l13.019-77.57h31.163zm-52.471-4h47.745l-11.676-69.57h-24.394z"/><path d="m33.702 26.869-2.084-3.414 32.286-19.709 32.284 19.709-2.084 3.414-30.2-18.436z"/><path d="m33.702 50.188-2.084-3.415 32.286-19.709 32.284 19.709-2.084 3.415-30.2-18.437z"/><path d="m45.015 62.08h42.407v4h-42.407z" transform="matrix(.7277 .6858 -.6858 .7277 61.9775 -27.97)"/><path d="m59.589 42.876h3.999v42.407h-3.999z" transform="matrix(.6859 .7277 -.7277 .6859 65.9733 -24.6904)"/><path d="m36.395 98.011h59.649v4h-59.649z" transform="matrix(.7115 .7027 -.7027 .7115 89.3827 -17.6781)"/><path d="m59.589 70.187h4v59.649h-4z" transform="matrix(.7027 .7115 -.7115 .7027 89.4673 -14.0862)"/><path d="m45.558 77.905h37.807v4h-37.807z"/><path d="m98.852 32.408h-4v-4.903h-65.544v4.903h-4v-8.903h73.544z"/><path d="m98.852 55.273h-4v-4.903h-65.544v4.903h-4v-8.903h73.544z"/><path d="m0 120.254h29.016v4h-29.016z"/><path d="m98.986 120.254h29.014v4h-29.014z"/></g></svg>