<svg xmlns="http://www.w3.org/2000/svg" viewBox="0 0 64 64" x="0px" y="0px"><title>Eco-Home-Ecology-house</title><g><path d="M8,35.305V57a1,1,0,0,0,1,1H57a1,1,0,0,0,1-1V38h1a1,1,0,0,0,.706-1.708L55.4,32H58a1,1,0,0,0,.707-1.707L42.652,14.238a1,1,0,0,0-.707-.293h-18a1,1,0,0,0-.707,1.707L27.586,20h-6.36a.99.99,0,0,0-.988.238L4.293,36.184,5.707,37.6ZM17,56V42h8V56Zm10,0V41a1,1,0,0,0-1-1H16a1,1,0,0,0-1,1V56H10V33.305L20.919,22.386,32,33.429V56Zm29,0H34V35.422l2.294,2.286A1,1,0,0,0,37,38H56Zm.58-20H37.414l-14-14H29v3h2V23.414l8.293,8.293A1,1,0,0,0,40,32h2v2h2V32h8.566ZM46.469,30,32.414,15.945h3.172L49.641,30Zm9.117,0H52.469L38.414,15.945h3.117Zm-26-14.055L43.641,30H40.414L26.359,15.945Z"/><path d="M59.294,26.708l1.412-1.416-15.055-15A1,1,0,0,0,44.945,10H36v2h8.532Z"/><path d="M39,52H51a1,1,0,0,0,1-1V43a1,1,0,0,0-1-1H39a1,1,0,0,0-1,1v8A1,1,0,0,0,39,52Zm11-2H46V44h4ZM40,44h4v6H40Z"/><rect x="19" y="48" width="2" height="2"/><path d="M8,62H21V60H8a2,2,0,0,1-2-2V50H4v8A4,4,0,0,0,8,62Z"/><rect x="23" y="60" width="2" height="2"/><rect x="32" y="10" width="2" height="2"/></g></svg>